<svg width="512" height="512" viewBox="0 0 512 512" fill="none" xmlns="http://www.w3.org/2000/svg">
<g clip-path="url(#clip0)">
<path d="M280.273 23.581C156.79 23.221 55.653 119.165 47.683 240.548H15.351C3.55199 240.548 -3.82301 253.321 2.07699 263.54L38.087 325.911L74.097 388.281C79.997 398.5 94.746 398.5 100.646 388.281L136.656 325.911L172.666 263.54C178.566 253.321 171.191 240.548 159.392 240.548H121.061C128.94 159.092 198.426 95.385 282.22 96.748C367.02 98.127 436.369 166.588 438.789 251.365C441.356 341.296 368.945 415.274 279.582 415.274C256.665 415.274 234.865 410.406 215.157 401.652C198.06 394.058 177.991 400.608 168.637 416.81C157.802 435.577 165.504 459.699 185.307 468.5C214.12 481.304 246.019 488.42 279.582 488.42C407.78 488.42 511.736 384.628 512.001 256.492C512.266 127.783 408.982 23.957 280.273 23.581V23.581Z" fill="white"/>
<path d="M340 245.975H322.42C317.893 233.213 307.763 223.09 295 218.563V200.3C295 192.016 288.284 185.3 280 185.3C271.716 185.3 265 192.016 265 200.3V218.555C247.541 224.747 235 241.42 235 260.975C235 285.788 255.186 305.975 280 305.975C280.092 305.975 280.182 305.962 280.273 305.959V305.968C299.709 305.851 316.256 293.35 322.42 275.975H340C348.284 275.975 355 269.259 355 260.975C355 252.69 348.284 245.975 340 245.975V245.975ZM280.273 275.961C280.181 275.963 280.092 275.975 280 275.975C271.728 275.975 265 269.246 265 260.975C265 252.703 271.728 245.975 280 245.975C280.092 245.975 280.182 245.987 280.273 245.989C288.418 246.137 295 252.796 295 260.975C295 269.154 288.418 275.813 280.273 275.961Z" fill="white"/>
</g>
<defs>
<clipPath id="clip0">
<rect width="512" height="512" fill="white"/>
</clipPath>
</defs>
</svg>
