<?xml version="1.0"?>
<svg xmlns="http://www.w3.org/2000/svg" xmlns:xlink="http://www.w3.org/1999/xlink" xmlns:svgjs="http://svgjs.com/svgjs" version="1.1" width="512" height="512" x="0" y="0" viewBox="0 0 512.001 512.001" style="enable-background:new 0 0 512 512" xml:space="preserve" class=""><g>
<g xmlns="http://www.w3.org/2000/svg">
	<g>
		<path d="M446.284,175.366L297.276,212.72l-20.961-20.961h-86.449v-21.726h32.619v-29.996h-95.235v29.996h32.619v21.726H0v94.429    h56.425v70.605h234.806l112.817-139.915l33.043-8.283l21.905,21.904l21.21-21.21L446.284,175.366z M56.425,256.192H29.996v-34.436    h26.429V256.192z M276.885,326.797H86.422v-40.608v-64.432H263.89l24.193,24.193l67.67-16.964L276.885,326.797z" fill="#F31D2C" data-original="#000000" style="" class=""/>
	</g>
</g>
<g xmlns="http://www.w3.org/2000/svg">
	<g>
		<path d="M503.842,304.725l-34.241-47.084l-34.242,47.084c-12.328,16.953-10.518,40.016,4.305,54.837    c7.997,7.997,18.629,12.401,29.937,12.401s21.94-4.404,29.936-12.401C514.361,344.742,516.171,321.678,503.842,304.725z     M478.327,338.353c-2.331,2.331-5.429,3.615-8.726,3.615c-3.297,0-6.395-1.284-8.727-3.615c-4.32-4.32-4.848-11.044-1.255-15.985    l9.981-13.725l9.981,13.725C483.175,327.31,482.648,334.032,478.327,338.353z" fill="#F31D2C" data-original="#000000" style="" class=""/>
	</g>
</g>
<g xmlns="http://www.w3.org/2000/svg">
</g>
<g xmlns="http://www.w3.org/2000/svg">
</g>
<g xmlns="http://www.w3.org/2000/svg">
</g>
<g xmlns="http://www.w3.org/2000/svg">
</g>
<g xmlns="http://www.w3.org/2000/svg">
</g>
<g xmlns="http://www.w3.org/2000/svg">
</g>
<g xmlns="http://www.w3.org/2000/svg">
</g>
<g xmlns="http://www.w3.org/2000/svg">
</g>
<g xmlns="http://www.w3.org/2000/svg">
</g>
<g xmlns="http://www.w3.org/2000/svg">
</g>
<g xmlns="http://www.w3.org/2000/svg">
</g>
<g xmlns="http://www.w3.org/2000/svg">
</g>
<g xmlns="http://www.w3.org/2000/svg">
</g>
<g xmlns="http://www.w3.org/2000/svg">
</g>
<g xmlns="http://www.w3.org/2000/svg">
</g>
</g></svg>
