<?xml version="1.0"?>
<svg xmlns="http://www.w3.org/2000/svg" xmlns:xlink="http://www.w3.org/1999/xlink" xmlns:svgjs="http://svgjs.com/svgjs" version="1.1" width="512" height="512" x="0" y="0" viewBox="0 0 510.382 510.382" style="enable-background:new 0 0 512 512" xml:space="preserve" class=""><g><g xmlns="http://www.w3.org/2000/svg"><path d="m90.486 180.197c8.061 0 15.872-1.066 23.307-3.054l56.734 56.733 63.552-63.727-56.646-56.646c15.736-55.904-28.645-114.193-86.948-113.305-119.247 4.407-119.227 175.603.001 179.999zm-23.718-113.717 32.399-8.682 23.717 23.718-8.681 32.397-32.398 8.682-23.717-23.716z" fill="#ffffff" data-original="#000000" style="" class=""/><path d="m420.486 330.197c-8.061 0-15.872 1.066-23.307 3.054-5.925-5.925-46.871-46.871-57.035-57.035l-63.552 63.728 56.947 56.947c-15.737 55.904 28.644 114.193 86.947 113.306 119.248-4.408 119.228-175.605 0-180zm23.717 113.717-32.398 8.682-23.717-23.717 8.681-32.398 32.398-8.682 23.717 23.718z" fill="#ffffff" data-original="#000000" style="" class=""/><path d="m396.596 177.125c73.548 20.098 137.664-57.189 104.519-125.732l-49.407 49.406-31.82-10.605-10.607-31.82 49.407-49.406c-68.589-33.158-145.825 31.016-125.732 104.518l-219.17 219.773c-73.549-20.1-137.663 57.186-104.519 125.73l49.407-49.406 31.82 10.607 10.607 31.819-49.407 49.407c68.591 33.156 145.824-31.016 125.732-104.52z" fill="#ffffff" data-original="#000000" style="" class=""/></g></g></svg>
