<?xml version="1.0"?>
<svg xmlns="http://www.w3.org/2000/svg" xmlns:xlink="http://www.w3.org/1999/xlink" xmlns:svgjs="http://svgjs.com/svgjs" version="1.1" width="512" height="512" x="0" y="0" viewBox="0 0 512.002 512.002" style="enable-background:new 0 0 512 512" xml:space="preserve" class=""><g>
<g xmlns="http://www.w3.org/2000/svg">
	<g>
		<path d="M153.557,89.912l10.605-10.605c6.91-6.91,5.451-18.465-2.886-23.467L80.931,7.631C59.837-4.996,33.001-1.7,15.672,15.673    C-1.701,33.032-4.997,59.868,7.63,80.932l48.208,80.332c5.008,8.347,16.62,9.794,23.467,2.886l10.62-10.605l81.154,81.03    l63.561-63.567L153.557,89.912z" fill="#ffffff" data-original="#000000" style="" class=""/>
	</g>
</g>
<g xmlns="http://www.w3.org/2000/svg">
	<g>
		<path d="M501.776,59.732c-4.407-9.245-16.77-11.547-24.141-4.146L438.831,94.39c-5.684,5.684-15.527,5.684-21.211,0    c-5.845-5.845-5.845-15.366,0-21.211l38.804-38.804c7.299-7.299,5.202-19.685-4.146-24.141    c-40.093-19.16-88.11-10.913-119.517,20.522c-28.843,28.828-38.159,71.675-24.683,109.512L140.259,308.081    c-37.808-13.477-80.669-4.16-109.512,24.683c-31.421,31.421-39.668,79.453-20.522,119.517c4.467,9.371,16.861,11.425,24.141,4.146    l38.804-38.804c5.859-5.83,15.381-5.845,21.211,0.015c5.843,5.813,5.886,15.279,0,21.196l-38.804,38.804    c-7.299,7.299-5.202,19.685,4.146,24.141c14.398,6.883,29.823,10.223,45.145,10.223c27.305,0,54.243-10.62,74.355-30.747    c28.857-28.828,38.159-71.675,24.683-109.512l167.822-167.811c37.793,13.462,80.669,4.16,109.526-24.683    C512.675,147.828,520.922,99.796,501.776,59.732z" fill="#ffffff" data-original="#000000" style="" class=""/>
	</g>
</g>
<g xmlns="http://www.w3.org/2000/svg">
	<g>
		<path d="M489.857,385.163c-50.919-50.732-78.834-70.888-138.525-117.309l-84.831,84.84    c41.958,53.86,67.365,88.599,115.016,136.267c15.586,15.586,36.299,22.857,56.675,22.857c14.956,0,29.722-3.551,42.129-12.471    c18.091-13.037,29.487-33.12,31.26-55.078C513.353,422.282,505.443,400.748,489.857,385.163z M446.652,446.713    c-5.972,5.44-15.277,4.918-20.989-0.794l-59.405-59.405c-5.712-5.712-6.234-15.017-0.794-20.989    c5.807-6.374,15.679-6.547,21.707-0.52l60,60C453.199,431.034,453.026,440.906,446.652,446.713z" fill="#ffffff" data-original="#000000" style="" class=""/>
	</g>
</g>
<g xmlns="http://www.w3.org/2000/svg">
</g>
<g xmlns="http://www.w3.org/2000/svg">
</g>
<g xmlns="http://www.w3.org/2000/svg">
</g>
<g xmlns="http://www.w3.org/2000/svg">
</g>
<g xmlns="http://www.w3.org/2000/svg">
</g>
<g xmlns="http://www.w3.org/2000/svg">
</g>
<g xmlns="http://www.w3.org/2000/svg">
</g>
<g xmlns="http://www.w3.org/2000/svg">
</g>
<g xmlns="http://www.w3.org/2000/svg">
</g>
<g xmlns="http://www.w3.org/2000/svg">
</g>
<g xmlns="http://www.w3.org/2000/svg">
</g>
<g xmlns="http://www.w3.org/2000/svg">
</g>
<g xmlns="http://www.w3.org/2000/svg">
</g>
<g xmlns="http://www.w3.org/2000/svg">
</g>
<g xmlns="http://www.w3.org/2000/svg">
</g>
</g></svg>
