<svg width="24" height="24" viewBox="0 0 24 24" fill="none" xmlns="http://www.w3.org/2000/svg">
<g opacity="1">
<path d="M12 0C5.36775 0 0 5.36705 0 12C0 18.6323 5.36705 24 12 24C18.6323 24 24 18.633 24 12C24 5.36775 18.633 0 12 0ZM12 22.4C6.26545 22.4 1.59998 17.7346 1.59998 12C1.59998 6.26541 6.26545 1.59998 12 1.59998C17.7345 1.59998 22.4 6.26545 22.4 12C22.4 17.7345 17.7345 22.4 12 22.4Z" fill="white"/>
<path d="M17.0969 11.587L12.6308 5.86224C12.3104 5.45156 11.6889 5.45245 11.3693 5.86224L6.90319 11.587C6.49491 12.1104 6.8677 12.8791 7.53394 12.8791H9.78009V17.6457C9.78009 18.0875 10.1383 18.4457 10.5801 18.4457H13.42C13.8618 18.4457 14.22 18.0876 14.22 17.6457V12.8791H16.4661C17.1324 12.8791 17.505 12.1103 17.0969 11.587ZM13.4199 11.2791C12.9781 11.2791 12.6199 11.6372 12.6199 12.0791V16.8457H11.38V12.079C11.38 11.6372 11.0219 11.279 10.58 11.279H9.17259L12 7.65492L14.8274 11.279H13.4199V11.2791Z" fill="white"/>
</g>
</svg>
