<svg width="19" height="19" viewBox="0 0 19 19" fill="none" xmlns="http://www.w3.org/2000/svg">
<g opacity="1" clip-path="url(#clip0)">
<path d="M18.6222 3.37703C18.5525 3.20139 18.3992 3.07262 18.2142 3.03436C18.029 2.99602 17.8373 3.05351 17.7037 3.1871L14.8094 6.08141L13.2534 5.74683L12.9188 4.19076L15.8131 1.29641C15.9467 1.16282 16.0041 0.970966 15.9659 0.785975C15.9276 0.600948 15.7988 0.447649 15.6232 0.377958C13.6361 -0.410023 11.3756 0.0572212 9.86434 1.56839C9.13685 2.29588 8.63728 3.20963 8.41967 4.2108C8.23349 5.06736 8.25966 5.95238 8.49356 6.79153L0.769463 14.5156C0.273236 15.0118 0 15.6715 0 16.3732C0 17.0749 0.273236 17.7346 0.769426 18.2307C1.26562 18.7269 1.92527 19.0001 2.62697 19.0001C3.32864 19.0001 3.98837 18.7269 4.48452 18.2307L12.2086 10.5066C13.0478 10.7405 13.9328 10.7666 14.7893 10.5805C15.7905 10.3629 16.7043 9.8633 17.4318 9.13581C18.943 7.62464 19.4102 5.36412 18.6222 3.37703Z" fill="white"/>
</g>
<defs>
<clipPath id="clip0">
<rect width="19" height="19" fill="white"/>
</clipPath>
</defs>
</svg>
