<?xml version="1.0" standalone="no"?>
<!DOCTYPE svg PUBLIC "-//W3C//DTD SVG 20010904//EN"
 "http://www.w3.org/TR/2001/REC-SVG-20010904/DTD/svg10.dtd">
<svg version="1.0" xmlns="http://www.w3.org/2000/svg"
 width="821.000000pt" height="1225.000000pt" viewBox="0 0 821.000000 1225.000000"
 preserveAspectRatio="xMidYMid meet">
<metadata>
Created by potrace 1.16, written by Peter Selinger 2001-2019
</metadata>
<g transform="translate(0.000000,1225.000000) scale(0.100000,-0.100000)"
fill="#000000" stroke="none">
<path d="M3760 12244 c-499 -44 -877 -128 -1332 -297 -79 -29 -138 -56 -138
-64 0 -11 46 -122 54 -130 2 -2 54 16 117 41 704 271 1452 363 2184 270 368
-47 801 -159 1127 -293 l97 -39 30 71 29 71 -31 14 c-364 158 -840 281 -1297
338 -129 16 -721 28 -840 18z"/>
<path d="M3775 11894 c-234 -14 -493 -53 -691 -103 -243 -61 -461 -147 -974
-381 -423 -193 -599 -294 -824 -474 -356 -285 -755 -797 -997 -1277 -27 -54
-49 -101 -49 -104 0 -5 125 -65 135 -65 2 0 37 64 78 143 267 512 629 956
1017 1246 199 149 327 218 788 428 622 281 831 349 1257 410 185 26 716 26
925 0 327 -41 586 -100 1050 -239 326 -98 578 -220 792 -384 31 -24 61 -44 66
-44 11 0 92 98 92 111 0 26 -245 190 -410 273 -167 85 -324 143 -598 222 -455
131 -723 188 -1038 219 -153 15 -509 26 -619 19z"/>
<path d="M3810 11559 c-451 -37 -918 -158 -1335 -345 -167 -76 -155 -62 -117
-139 17 -36 36 -65 40 -65 5 0 56 22 113 49 377 176 814 295 1259 343 152 16
594 16 740 -1 569 -64 1088 -235 1537 -508 383 -231 894 -670 1137 -973 414
-518 681 -1229 737 -1960 14 -190 6 -712 -15 -885 -54 -456 -172 -808 -461
-1383 -214 -426 -284 -691 -255 -972 20 -204 79 -339 200 -460 82 -82 165
-135 281 -180 72 -28 244 -68 253 -59 2 2 7 36 11 76 l7 72 -28 6 c-196 41
-312 95 -407 188 -116 115 -167 255 -167 465 0 236 59 422 270 847 309 623
421 994 460 1532 19 246 8 805 -19 1000 -88 642 -330 1255 -679 1721 -217 291
-489 553 -893 859 -600 455 -1267 709 -2034 773 -140 11 -484 11 -635 -1z"/>
<path d="M3925 11259 c-319 -30 -916 -154 -1178 -246 -301 -104 -587 -268
-832 -477 -139 -119 -555 -535 -663 -665 -237 -282 -375 -521 -507 -876 -135
-363 -308 -648 -568 -935 l-50 -54 58 -54 58 -54 56 63 c262 293 467 632 592
979 119 331 273 592 514 870 113 129 550 559 655 644 343 275 673 422 1195
534 544 117 844 148 1168 123 412 -33 766 -131 1142 -316 664 -326 1226 -843
1575 -1450 407 -706 584 -1557 475 -2290 -48 -318 -195 -745 -369 -1065 -192
-352 -322 -636 -362 -789 -83 -320 -71 -537 44 -766 50 -101 85 -148 187 -254
213 -221 449 -371 714 -455 45 -14 84 -26 85 -26 7 0 38 141 33 147 -3 3 -45
18 -92 34 -232 78 -442 214 -631 410 -182 189 -263 408 -235 640 15 128 54
280 102 396 45 108 200 421 296 597 181 333 327 763 385 1136 30 195 32 639 5
855 -119 933 -545 1780 -1190 2366 -635 579 -1349 912 -2097 979 -133 12 -434
11 -565 -1z"/>
<path d="M6722 10927 l-53 -54 211 -204 c116 -112 217 -205 224 -207 7 -1 34
21 61 49 l49 53 -214 207 c-118 115 -217 209 -220 209 -3 0 -29 -24 -58 -53z"/>
<path d="M1855 10873 c-636 -466 -1123 -1041 -1470 -1734 -94 -187 -179 -389
-168 -398 11 -11 113 -51 127 -51 6 0 26 39 45 88 55 138 231 484 325 635 323
522 713 947 1204 1310 67 49 122 94 122 99 0 16 -73 118 -84 117 -6 0 -51 -30
-101 -66z"/>
<path d="M3945 10930 c-1168 -66 -2215 -731 -2784 -1768 -116 -212 -266 -572
-245 -591 5 -5 37 -18 72 -29 46 -15 64 -18 67 -9 129 375 305 703 541 1007
108 139 382 417 519 526 250 198 575 386 863 499 817 318 1752 285 2530 -90
340 -165 595 -347 858 -616 261 -268 449 -539 619 -893 108 -224 228 -563 251
-707 4 -22 10 -41 13 -43 6 -4 142 21 148 27 6 7 -60 249 -102 375 -497 1488
-1816 2398 -3350 2312z"/>
<path d="M3875 10629 c-304 -31 -652 -126 -941 -256 -525 -235 -930 -582
-1324 -1133 -145 -202 -239 -372 -350 -630 -169 -393 -311 -634 -543 -922
-170 -211 -417 -459 -605 -605 -33 -26 -61 -52 -62 -56 0 -12 83 -116 94 -116
35 -3 478 416 623 589 266 318 428 580 604 977 155 350 223 474 375 686 202
280 467 566 669 718 427 324 894 517 1425 590 137 19 467 16 615 -5 501 -72
964 -264 1376 -573 l109 -81 45 52 c25 29 45 58 45 65 0 17 -216 174 -363 263
-365 221 -737 358 -1137 419 -156 23 -511 33 -655 18z"/>
<path d="M3645 10235 c-763 -213 -1343 -579 -1724 -1089 -100 -134 -182 -276
-356 -616 -226 -442 -357 -657 -574 -945 -202 -268 -531 -619 -785 -838 -71
-62 -143 -124 -160 -138 l-30 -26 45 -57 c24 -31 48 -56 54 -56 20 0 330 276
484 430 353 352 670 766 905 1180 43 74 134 248 203 385 138 276 244 460 331
577 142 190 315 362 515 512 326 243 736 429 1223 555 l41 11 -17 72 c-9 40
-21 73 -26 74 -5 2 -63 -13 -129 -31z"/>
<path d="M4280 10177 l0 -74 133 -6 c459 -23 897 -178 1262 -449 134 -100 345
-309 443 -440 234 -313 417 -727 492 -1114 69 -361 68 -761 -5 -1120 -68 -336
-212 -683 -405 -979 -46 -70 -79 -130 -74 -134 43 -37 117 -82 122 -75 199
288 323 534 422 834 206 626 194 1340 -34 1949 -244 650 -634 1113 -1186 1404
-318 168 -736 277 -1066 277 l-104 0 0 -73z"/>
<path d="M3920 9964 c-319 -39 -543 -101 -785 -219 -387 -188 -605 -400 -1040
-1010 -266 -372 -357 -522 -574 -944 -224 -436 -381 -654 -700 -972 -213 -212
-381 -350 -631 -517 -96 -64 -177 -118 -179 -119 -3 -2 61 -113 75 -132 5 -5
174 104 298 192 347 246 692 580 931 902 128 171 196 286 357 598 212 412 298
552 601 972 381 528 578 716 932 891 437 215 986 271 1500 152 631 -145 1215
-680 1472 -1349 185 -479 198 -941 43 -1474 -72 -248 -179 -478 -330 -710
-240 -369 -361 -726 -389 -1150 -30 -445 77 -862 302 -1182 82 -117 284 -317
433 -430 208 -158 726 -489 1024 -655 145 -81 335 -178 348 -178 8 0 76 130
70 135 -2 2 -55 29 -118 60 -223 111 -558 310 -929 552 -448 293 -668 508
-814 798 -108 215 -155 418 -164 695 -7 221 11 385 63 588 63 249 156 454 314
697 223 342 360 707 425 1125 26 168 30 439 11 610 -85 727 -526 1412 -1149
1782 -246 147 -472 227 -767 273 -101 16 -545 29 -630 19z"/>
<path d="M3970 9629 c-393 -27 -821 -195 -1132 -446 -38 -29 -68 -57 -68 -61
0 -4 22 -31 48 -61 l48 -54 85 66 c515 398 1154 510 1771 311 410 -132 776
-421 998 -789 265 -438 341 -913 221 -1380 -63 -249 -293 -816 -461 -1140
-310 -597 -386 -1309 -199 -1879 68 -209 188 -430 321 -591 87 -105 269 -283
413 -404 415 -348 707 -547 1074 -730 135 -68 388 -181 404 -181 7 0 61 139
56 143 -2 2 -47 20 -99 41 -140 57 -426 201 -580 293 -441 264 -1022 754
-1213 1023 -236 333 -352 774 -319 1213 28 371 109 658 283 1003 223 445 434
988 494 1274 32 154 44 404 26 555 -71 604 -389 1129 -885 1465 -354 238 -832
361 -1286 329z"/>
<path d="M6248 9571 l-52 -48 60 -69 c406 -460 644 -959 695 -1456 36 -349
-48 -921 -207 -1410 -96 -297 -155 -431 -384 -875 -60 -116 -105 -238 -137
-373 -37 -155 -44 -445 -15 -616 49 -285 164 -533 345 -745 192 -225 621 -518
950 -650 110 -45 281 -99 288 -92 7 9 39 114 39 131 0 6 -37 23 -82 37 -293
96 -519 218 -807 434 -319 239 -492 498 -573 862 -30 139 -33 427 -5 559 31
143 77 269 154 415 116 222 207 410 258 540 147 366 256 783 310 1185 22 161
31 500 16 635 -45 435 -230 878 -535 1285 -88 117 -243 300 -256 300 -5 0 -32
-22 -62 -49z"/>
<path d="M3920 9284 c-303 -46 -599 -177 -840 -371 -106 -86 -261 -249 -358
-378 -60 -80 -105 -156 -163 -275 -412 -844 -686 -1269 -1084 -1679 -357 -368
-829 -750 -1274 -1033 -86 -55 -160 -103 -164 -108 -10 -9 53 -130 68 -130 15
0 181 103 345 214 565 381 1128 890 1466 1326 225 290 457 679 700 1175 145
296 192 374 307 512 261 310 577 503 960 585 146 31 408 31 553 0 481 -103
878 -410 1098 -851 97 -192 145 -382 153 -598 12 -311 -64 -608 -229 -894
-300 -521 -508 -1156 -558 -1699 -15 -173 -13 -583 5 -734 52 -448 242 -831
577 -1166 171 -171 310 -276 538 -407 302 -173 1301 -733 1309 -733 14 0 82
123 73 131 -4 4 -297 170 -652 369 -702 395 -788 445 -912 535 -113 81 -378
348 -456 460 -173 245 -273 487 -318 770 -22 137 -30 511 -15 705 42 551 238
1155 550 1699 181 316 264 673 240 1028 -48 696 -561 1315 -1249 1506 -201 56
-464 72 -670 41z"/>
<path d="M3935 8999 c-350 -47 -637 -213 -864 -498 -185 -232 -323 -476 -421
-746 -139 -382 -168 -429 -614 -984 l-269 -335 34 -29 c19 -15 46 -37 61 -48
l27 -20 244 303 c462 574 515 657 642 1003 88 239 162 391 274 558 163 243
280 369 443 474 302 197 724 233 1087 93 104 -40 268 -150 360 -241 82 -81
180 -207 217 -281 13 -26 28 -48 32 -48 17 0 132 54 132 62 0 31 -94 178 -185
288 -140 168 -354 317 -557 386 -171 58 -468 87 -643 63z"/>
<path d="M2317 8468 c-257 -519 -539 -1018 -711 -1260 -319 -447 -874 -932
-1538 -1345 -38 -23 -68 -47 -68 -53 0 -15 68 -120 78 -120 11 0 144 84 327
207 563 376 1028 802 1315 1203 211 294 566 931 826 1480 l74 155 -63 32 c-34
18 -65 32 -69 33 -3 0 -81 -150 -171 -332z"/>
<path d="M3931 8655 c-229 -50 -448 -185 -606 -374 -82 -98 -131 -181 -204
-346 -96 -213 -292 -573 -541 -990 -206 -344 -330 -496 -724 -890 -406 -405
-627 -599 -1002 -881 -195 -147 -502 -355 -652 -444 -40 -23 -75 -46 -78 -51
-7 -11 54 -119 71 -125 26 -10 476 286 770 506 332 249 586 471 958 840 410
404 577 606 777 940 239 400 464 810 551 1007 76 172 121 250 196 335 102 118
202 195 335 258 109 52 181 70 303 77 391 22 770 -257 907 -667 31 -91 32
-101 32 -255 0 -225 -8 -249 -249 -730 -598 -1198 -829 -1557 -1348 -2092
-633 -651 -1805 -1492 -2717 -1948 -63 -31 -116 -58 -118 -60 -6 -5 63 -135
72 -135 15 0 337 170 526 277 463 265 794 482 1250 821 434 323 696 542 969
807 470 458 740 816 1074 1425 213 389 590 1135 631 1250 119 330 87 652 -95
946 -76 124 -254 301 -369 369 -101 59 -225 107 -332 129 -95 20 -298 20 -387
1z"/>
<path d="M3975 8331 c-177 -51 -369 -207 -496 -403 -49 -76 -203 -390 -314
-638 -119 -266 -152 -329 -236 -456 -96 -142 -251 -336 -546 -680 -467 -544
-691 -767 -1055 -1047 -291 -223 -713 -489 -1036 -651 -51 -25 -92 -51 -92
-58 0 -9 54 -114 66 -127 5 -5 278 140 440 235 496 290 862 564 1212 908 183
179 326 336 608 666 522 610 585 702 769 1120 42 96 128 279 190 405 89 179
129 249 181 314 133 165 293 267 436 278 93 7 161 -8 252 -56 170 -87 334
-321 353 -502 7 -70 -7 -147 -54 -294 -73 -228 -176 -456 -308 -685 -93 -161
-102 -175 -565 -830 -409 -580 -503 -706 -617 -835 -82 -93 -395 -393 -588
-564 -575 -510 -1242 -948 -1927 -1267 -93 -42 -168 -83 -168 -90 0 -6 12 -37
26 -69 24 -52 28 -56 53 -50 44 11 557 266 721 360 609 346 1068 687 1625
1206 374 349 433 416 737 844 414 582 656 926 724 1030 163 249 318 562 409
826 63 184 85 279 85 376 0 104 -14 170 -55 260 -112 244 -304 423 -512 477
-81 21 -240 20 -318 -3z"/>
<path d="M598 8098 c-357 -448 -528 -667 -527 -675 0 -8 103 -93 113 -93 5 0
646 806 646 813 0 2 -27 25 -59 51 l-60 46 -113 -142z"/>
<path d="M3969 7997 c-134 -46 -239 -159 -280 -301 -49 -171 -74 -240 -123
-342 -46 -95 -136 -253 -190 -336 l-17 -27 57 -36 c32 -20 62 -39 68 -41 12
-5 147 217 209 341 52 105 103 240 127 334 26 103 49 149 97 197 71 72 171 97
269 69 78 -22 162 -105 189 -185 25 -74 16 -174 -23 -271 -44 -109 -460 -835
-677 -1179 -100 -159 -165 -245 -514 -680 -267 -333 -357 -436 -526 -605 -380
-378 -819 -728 -1270 -1010 -77 -48 -150 -94 -163 -102 l-23 -14 31 -52 c17
-29 34 -58 39 -66 11 -18 75 18 341 194 459 303 988 744 1289 1075 228 251
757 912 878 1097 161 247 634 1058 712 1224 53 111 71 184 71 291 0 154 -62
280 -180 369 -104 78 -261 100 -391 56z"/>
<path d="M5382 7901 l-44 -6 -2 -235 c-3 -248 -11 -311 -61 -495 -28 -104 -77
-229 -130 -334 -69 -139 -496 -870 -672 -1154 -381 -613 -1086 -1377 -1838
-1992 -535 -438 -1251 -905 -1828 -1191 -64 -32 -117 -64 -117 -72 0 -7 14
-39 30 -72 l30 -60 121 60 c962 483 1929 1191 2704 1981 476 485 822 917 1090
1359 135 223 525 892 587 1010 115 215 187 429 223 665 18 115 25 450 11 513
-8 35 -12 36 -104 23z"/>
<path d="M7287 7608 c-7 -391 -41 -700 -96 -888 -10 -36 -61 -166 -113 -290
-52 -124 -136 -329 -187 -456 -64 -160 -118 -276 -176 -380 -142 -250 -161
-344 -152 -769 6 -278 14 -339 63 -463 42 -105 109 -211 209 -328 158 -187
324 -310 600 -445 141 -68 374 -159 410 -159 12 0 53 136 44 144 -2 2 -56 20
-119 41 -148 50 -440 197 -555 280 -213 153 -397 379 -458 564 -43 130 -59
404 -37 671 12 152 34 216 135 394 63 112 114 223 201 440 64 160 151 374 194
476 82 194 118 318 144 500 33 231 65 795 51 898 l-7 52 -73 0 -72 0 -6 -282z"/>
<path d="M3955 7412 c-421 -859 -908 -1535 -1615 -2243 -720 -721 -1215 -1077
-2048 -1476 -2 0 12 -33 30 -73 l33 -71 192 95 c683 337 1179 701 1837 1346
641 629 1139 1281 1539 2015 85 156 281 554 276 559 -7 6 -89 47 -113 56 -23
9 -28 1 -131 -208z"/>
<path d="M3104 6613 c-107 -186 -371 -556 -561 -788 -221 -271 -558 -619 -768
-794 -130 -108 -332 -260 -465 -348 -229 -152 -645 -399 -947 -562 l-152 -82
32 -65 c17 -35 37 -64 43 -64 27 0 444 232 739 410 663 401 1021 696 1489
1229 262 298 574 724 730 992 l26 46 -61 37 c-33 20 -64 36 -69 36 -4 0 -20
-21 -36 -47z"/>
<path d="M8065 6538 c-88 -285 -168 -495 -263 -688 -88 -182 -221 -490 -263
-610 -63 -179 -87 -455 -54 -598 43 -182 173 -308 350 -341 32 -6 76 -11 97
-11 43 0 44 4 31 108 -4 39 -10 52 -19 48 -21 -8 -124 14 -165 34 -50 26 -114
101 -134 158 -37 104 -29 298 19 480 25 96 191 495 255 613 86 159 291 697
291 763 0 19 -10 25 -60 39 -72 20 -79 21 -85 5z"/>
<path d="M1390 6037 c-307 -299 -704 -608 -1097 -852 -92 -57 -177 -110 -187
-118 -18 -13 -18 -15 15 -75 19 -34 39 -62 45 -62 16 0 176 97 369 225 203
134 439 310 629 469 141 117 466 415 466 426 0 7 -104 110 -110 110 -3 -1 -61
-56 -130 -123z"/>
<path d="M4766 5698 c-95 -271 -247 -548 -431 -783 -468 -599 -1585 -1626
-2325 -2137 -280 -193 -671 -396 -1017 -528 -62 -24 -113 -48 -113 -54 0 -6
10 -39 22 -74 25 -73 4 -73 202 5 286 113 572 256 826 414 526 326 1463 1122
2067 1755 411 432 608 688 757 985 65 130 176 392 176 416 0 7 -122 53 -141
53 -2 0 -13 -24 -23 -52z"/>
<path d="M5975 5463 c-118 -281 -148 -704 -73 -1028 64 -279 195 -519 373
-682 238 -219 769 -521 1275 -724 l145 -58 27 71 c15 39 27 73 25 74 -1 1 -58
25 -127 52 -530 213 -1099 542 -1290 748 -310 333 -408 963 -226 1448 14 38
26 70 26 72 0 5 -33 21 -88 43 l-52 21 -15 -37z"/>
<path d="M7791 5314 c-15 -34 -54 -234 -81 -414 -29 -199 -18 -255 62 -308 38
-24 50 -27 127 -26 47 0 98 6 113 12 l27 11 -25 68 c-14 37 -27 69 -29 71 -1
1 -22 -2 -47 -7 -70 -16 -88 -7 -88 44 0 53 55 386 75 452 8 26 13 48 12 49
-10 7 -129 74 -131 74 -2 0 -8 -12 -15 -26z"/>
<path d="M4593 4816 c-33 -15 -65 -60 -187 -259 -64 -103 -178 -250 -331 -423
-252 -285 -532 -533 -845 -749 -47 -32 -87 -60 -89 -62 -2 -1 15 -32 39 -68
l43 -66 26 18 c154 100 367 265 540 418 272 240 609 622 748 847 l38 62 2 -65
c6 -161 25 -387 39 -460 61 -322 268 -652 553 -881 l73 -59 46 62 46 62 -50
41 c-194 161 -329 329 -426 531 -93 196 -121 364 -122 747 l-1 258 -25 25
c-32 31 -76 39 -117 21z"/>
<path d="M4355 3996 c-34 -15 -77 -60 -152 -156 -115 -147 -261 -265 -452
-366 -109 -58 -141 -125 -85 -181 24 -24 29 -25 107 -20 45 3 125 13 177 21
120 20 293 20 403 1 47 -8 143 -33 214 -56 160 -52 206 -55 239 -16 25 30 31
66 14 97 -6 11 -51 47 -101 81 -109 75 -182 154 -210 228 -17 46 -20 77 -20
184 1 75 -3 137 -10 148 -9 18 -65 50 -86 49 -4 -1 -21 -7 -38 -14z m2 -400
c9 -32 30 -78 45 -103 16 -25 27 -47 25 -49 -2 -2 -32 1 -68 7 -35 6 -122 11
-193 12 l-128 1 28 20 c54 40 141 121 200 188 l59 68 8 -43 c5 -23 16 -68 24
-101z"/>
<path d="M615 3480 c-121 -71 -224 -131 -230 -133 -11 -5 55 -137 69 -137 13
0 476 271 476 278 -1 19 -68 117 -81 119 -8 1 -113 -56 -234 -127z"/>
<path d="M3800 3164 c-428 -53 -751 -141 -1043 -282 -140 -68 -198 -102 -512
-299 -335 -211 -709 -411 -1075 -575 -121 -54 -174 -83 -172 -93 5 -25 51
-125 58 -125 18 0 372 164 564 261 273 138 464 247 796 454 146 92 317 192
382 224 254 127 554 216 897 268 166 24 575 24 760 -1 180 -24 397 -68 545
-111 438 -127 886 -358 1231 -635 34 -27 67 -50 73 -50 10 1 96 101 96 113 0
8 -224 177 -325 244 -464 309 -1000 510 -1575 589 -111 15 -618 28 -700 18z"/>
<path d="M3905 2844 c-387 -40 -773 -152 -1114 -324 -68 -33 -256 -143 -310
-178 -11 -8 -5 -22 28 -71 23 -33 44 -61 47 -61 4 0 54 29 113 64 676 406
1454 526 2167 336 304 -81 522 -192 1174 -595 211 -131 447 -274 524 -318 131
-75 494 -257 513 -257 8 0 63 116 63 132 0 4 -87 49 -193 101 -240 117 -314
159 -817 470 -801 495 -1049 605 -1540 682 -101 16 -556 29 -655 19z"/>
<path d="M3800 2524 c-416 -58 -793 -209 -1276 -510 -305 -191 -624 -371 -899
-511 -129 -65 -235 -124 -235 -131 0 -7 14 -39 30 -72 l30 -60 173 86 c334
167 623 331 986 557 569 355 1021 507 1502 507 344 0 705 -78 982 -214 116
-56 146 -74 782 -443 504 -293 893 -513 908 -513 9 0 57 77 75 121 2 4 -138
87 -310 185 -172 98 -500 286 -728 419 -228 133 -465 269 -526 303 -248 136
-465 211 -764 263 -166 28 -571 36 -730 13z"/>
<path d="M3975 2209 c-137 -11 -292 -40 -443 -84 -223 -64 -321 -110 -658
-313 -380 -228 -639 -373 -1020 -568 l-243 -125 32 -65 c17 -35 38 -64 46 -64
16 0 383 188 621 318 204 111 384 215 666 383 348 207 437 247 683 308 200 50
252 56 481 56 325 -1 439 -31 790 -206 266 -134 469 -244 716 -392 349 -208
942 -547 957 -547 6 0 79 131 75 135 -2 1 -91 51 -198 110 -206 115 -587 335
-781 452 -256 156 -727 405 -909 482 -241 101 -525 143 -815 120z"/>
<path d="M6646 2075 c-16 -36 -26 -68 -24 -71 6 -5 543 -253 557 -256 11 -3
78 129 70 136 -9 8 -556 256 -565 256 -5 0 -22 -29 -38 -65z"/>
<path d="M1655 1859 c-247 -131 -454 -244 -460 -250 -7 -7 1 -30 25 -75 19
-35 37 -63 40 -62 4 2 210 111 458 243 288 153 451 245 451 255 0 8 -14 41
-32 72 l-33 57 -449 -240z"/>
<path d="M3867 1880 c-227 -28 -481 -106 -647 -197 -36 -20 -148 -92 -250
-161 -330 -223 -628 -407 -900 -557 -58 -32 -124 -68 -147 -82 l-43 -24 35
-62 c19 -34 38 -63 43 -65 12 -4 305 160 542 302 102 61 316 198 475 305 160
106 326 211 370 233 110 53 298 113 441 140 157 29 433 32 569 5 126 -25 275
-72 374 -118 46 -22 85 -38 86 -37 6 7 65 128 65 133 0 11 -164 82 -261 113
-183 59 -276 73 -489 77 -107 2 -226 0 -263 -5z"/>
<path d="M5035 1530 c-32 -52 -35 -64 -24 -74 57 -53 880 -516 1216 -685 l123
-61 34 69 35 69 -122 62 c-322 166 -708 379 -1014 562 -100 60 -189 111 -197
114 -9 3 -26 -15 -51 -56z"/>
<path d="M3865 1539 c-155 -20 -326 -76 -445 -145 -30 -18 -120 -80 -200 -139
-304 -223 -633 -411 -950 -542 -47 -19 -89 -39 -94 -43 -11 -11 32 -130 49
-136 16 -7 198 72 395 170 263 132 469 260 753 469 164 120 268 167 456 204
116 23 354 22 476 -1 215 -41 307 -77 465 -183 136 -91 218 -137 480 -268 276
-138 431 -225 608 -341 79 -52 145 -94 147 -94 5 0 75 99 81 114 5 13 -142
115 -326 226 -58 35 -253 139 -433 231 -195 100 -383 204 -465 258 -162 106
-214 131 -367 171 -203 55 -439 73 -630 49z"/>
<path d="M3840 1246 c-151 -32 -225 -73 -395 -216 -246 -207 -563 -397 -832
-501 -35 -13 -63 -28 -63 -34 0 -14 40 -118 49 -128 18 -18 330 126 526 243
150 90 288 188 414 295 145 122 176 143 265 171 200 63 430 35 714 -87 149
-64 262 -128 435 -248 195 -135 731 -453 741 -440 13 17 66 119 66 127 0 6
-55 41 -122 78 -200 109 -411 238 -604 369 -263 179 -503 295 -727 351 -127
32 -362 42 -467 20z"/>
<path d="M3976 910 c-94 -20 -291 -110 -309 -141 -8 -12 0 -30 33 -72 l42 -57
42 26 c144 88 303 125 454 104 157 -21 300 -85 405 -180 172 -156 298 -242
490 -336 73 -35 135 -64 139 -64 7 0 62 139 57 144 -2 2 -37 18 -77 35 -147
62 -323 177 -462 301 -143 128 -228 176 -397 226 -123 36 -292 42 -417 14z"/>
<path d="M3955 664 c-67 -17 -103 -39 -268 -163 -100 -75 -233 -172 -294 -215
-62 -44 -113 -83 -113 -87 0 -12 74 -118 83 -119 12 0 178 117 386 273 101 76
193 143 204 149 34 18 118 3 207 -36 111 -49 287 -145 592 -322 137 -79 250
-144 252 -144 7 0 76 116 76 126 0 5 -15 17 -33 28 -557 323 -793 450 -901
486 -64 21 -157 32 -191 24z"/>
<path d="M3088 446 c-131 -58 -242 -107 -247 -110 -15 -9 44 -142 62 -138 19
3 470 201 479 210 4 4 -8 37 -25 74 l-32 68 -237 -104z"/>
<path d="M3942 341 c-98 -37 -182 -113 -231 -209 l-22 -43 36 -14 c19 -8 50
-21 69 -29 l34 -14 37 53 c86 126 215 157 343 84 29 -16 65 -47 80 -69 15 -22
32 -39 39 -40 19 0 123 63 123 76 0 22 -78 112 -125 144 -83 57 -132 73 -235
77 -76 3 -105 0 -148 -16z"/>
</g>
</svg>
