<?xml version="1.0" encoding="iso-8859-1"?>
<!-- Generator: Adobe Illustrator 19.0.0, SVG Export Plug-In . SVG Version: 6.00 Build 0)  -->
<svg version="1.1" id="Capa_1" xmlns="http://www.w3.org/2000/svg" xmlns:xlink="http://www.w3.org/1999/xlink" x="0px" y="0px"
	 viewBox="0 0 512 512" style="enable-background:new 0 0 512 512;" xml:space="preserve">
<g>
	<g>
		<path d="M406,180h30c24.813,0,45-20.187,45-45V45c0-24.813-20.187-45-45-45h-30c-24.813,0-45,20.187-45,45v30h-62.58
			c-6.192-17.459-22.865-30-42.42-30s-36.228,12.541-42.42,30H151V45c0-24.813-20.187-45-45-45H76C51.187,0,31,20.187,31,45v90
			c0,24.813,20.187,45,45,45h30c24.813,0,45-20.187,45-45v-30h62.58c4.527,12.764,14.656,22.893,27.42,27.42V242
			c-24.813,0-45,20.187-45,45v30c0,24.813,20.187,45,45,45v45h-90v-30c0-24.813-20.187-45-45-45H76c-24.813,0-45,20.187-45,45v90
			c0,24.813,20.187,45,45,45h30c24.813,0,45-20.187,45-45v-30h210v30c0,24.813,20.187,45,45,45h30c24.813,0,45-20.187,45-45v-90
			c0-24.813-20.187-45-45-45h-30c-24.813,0-45,20.187-45,45v30h-90v-45c24.813,0,45-20.187,45-45v-30c0-24.813-20.187-45-45-45
			V132.42c12.764-4.527,22.893-14.656,27.42-27.42H361v30C361,159.813,381.187,180,406,180z M391,45c0-8.271,6.729-15,15-15h30
			c8.271,0,15,6.729,15,15v90c0,8.271-6.729,15-15,15h-30c-8.271,0-15-6.729-15-15V45z M121,135c0,8.271-6.729,15-15,15H76
			c-8.271,0-15-6.729-15-15V45c0-8.271,6.729-15,15-15h30c8.271,0,15,6.729,15,15V135z M121,467c0,8.271-6.729,15-15,15H76
			c-8.271,0-15-6.729-15-15v-90c0-8.271,6.729-15,15-15h30c8.271,0,15,6.729,15,15V467z M391,377c0-8.271,6.729-15,15-15h30
			c8.271,0,15,6.729,15,15v90c0,8.271-6.729,15-15,15h-30c-8.271,0-15-6.729-15-15V377z M286,287v30c0,8.271-6.729,15-15,15h-30
			c-8.271,0-15-6.729-15-15v-30c0-8.271,6.729-15,15-15h30C279.271,272,286,278.729,286,287z M256,105c-8.271,0-15-6.729-15-15
			s6.729-15,15-15s15,6.729,15,15S264.271,105,256,105z"/>
	</g>
</g>
<g>
</g>
<g>
</g>
<g>
</g>
<g>
</g>
<g>
</g>
<g>
</g>
<g>
</g>
<g>
</g>
<g>
</g>
<g>
</g>
<g>
</g>
<g>
</g>
<g>
</g>
<g>
</g>
<g>
</g>
</svg>
