<svg id="Layer_1" enable-background="new 0 0 512.004 512.004" height="512" viewBox="0 0 512.004 512.004" width="512" xmlns="http://www.w3.org/2000/svg"><g><g clip-rule="evenodd" fill-rule="evenodd"><path d="m86.671 215.494c9.521-30.197 26.271-57.674 48.71-80.113s49.916-39.189 80.113-48.71c3.927-1.238 7.171-6.121 6.186-9.797-1.922-7.213-3.844-14.426-5.766-21.64-3.104-11.648-6.207-23.296-9.311-34.944-1.969-7.348-9.383-12.047-16.813-9.658-17.508 5.629-34.378 12.964-50.363 21.871-5.432-5.431-12.605-6.178-18.074-3.021-42.194 23.629-68.241 49.676-91.87 91.87-3.157 5.468-2.41 12.642 3.021 18.074-8.908 15.985-16.242 32.855-21.871 50.363-2.389 7.43 2.31 14.844 9.658 16.813 11.648 3.104 23.296 6.208 34.944 9.311 7.213 1.922 14.426 3.844 21.64 5.766 3.675.985 8.557-2.259 9.796-6.185z" fill="#ff5a58"/><path d="m135.381 135.38c-22.439 22.439-39.189 49.916-48.71 80.113-1.238 3.927-6.121 7.171-9.796 6.186-7.213-1.922-14.426-3.844-21.64-5.766-5.121 19.106-7.747 38.881-7.747 58.832 0 125.511 101.747 227.259 227.259 227.259s227.259-101.747 227.259-227.259-101.747-227.259-227.259-227.259c-19.951 0-39.726 2.627-58.832 7.747 1.922 7.213 3.844 14.426 5.766 21.64.985 3.676-2.259 8.558-6.186 9.797-30.198 9.522-57.675 26.271-80.114 48.71zm29.365 139.366c0-60.751 49.249-110 110-110s110 49.249 110 110-49.249 110-110 110c-60.752-.001-110-49.249-110-110z" fill="#fff"/><path d="m274.746 164.746c60.751 0 110 49.249 110 110s-49.249 110-110 110-110-49.249-110-110 49.248-110 110-110zm0 79.999c-16.569 0-30 13.432-30 30s13.432 30 30 30 30-13.432 30-30-13.432-30-30-30z" fill="#dad0d3"/><path d="m140.069 193.791c6.594-10.924 14.517-21.047 23.596-30.126 9.079-9.078 19.202-17.002 30.126-23.596 22.282-12.865 29.209-29.593 21.703-53.398-30.197 9.521-57.674 26.271-80.113 48.71s-39.189 49.916-48.71 80.113c23.805 7.506 40.533.579 53.398-21.703z" fill="#6d91ac"/></g><g><path d="m442.513 106.978c-44.812-44.812-104.393-69.491-167.767-69.491-17.388 0-34.732 1.922-51.691 5.708l-6.793-25.492c-1.707-6.372-5.953-11.807-11.648-14.91-5.53-3.015-11.882-3.61-17.885-1.681-16.022 5.151-31.645 11.732-46.527 19.595-7.485-4.069-16.346-4.185-23.783.078-43.531 24.388-71.244 52.102-95.63 95.63-4.266 7.438-4.149 16.3-.08 23.786-7.861 14.88-14.442 30.503-19.595 46.526v.001c-1.93 6.003-1.333 12.355 1.681 17.886 3.104 5.695 8.538 9.94 14.922 11.651l25.479 6.789c-3.785 16.96-5.708 34.305-5.708 51.691 0 63.374 24.679 122.955 69.491 167.767 44.813 44.813 104.394 69.492 167.768 69.492s122.955-24.68 167.767-69.492c44.813-44.812 69.492-104.393 69.492-167.767s-24.681-122.954-69.493-167.767zm-253.722 24.431c-.056.032-.112.065-.167.099-11.622 7.015-22.397 15.455-32.029 25.086-9.63 9.631-18.071 20.407-25.086 32.029-.033.056-.066.111-.099.168-8.53 14.775-18.093 20.837-31.6 19.389 9.363-24.498 23.965-47.05 42.643-65.728 18.677-18.678 41.228-33.279 65.728-42.643 1.447 13.506-4.615 23.069-19.39 31.6zm-168.436 63.634c-.384-.704-.45-1.422-.203-2.192 5.406-16.813 12.5-33.148 21.087-48.556 2.176-3.904 1.496-8.778-1.664-11.939-1.944-1.944-2.479-4.188-1.432-6.001.022-.038.043-.076.065-.115 22.741-40.607 47.422-65.29 88.031-88.032.038-.021.076-.043.114-.064 1.815-1.048 4.059-.512 6.002 1.432 3.16 3.162 8.034 3.842 11.939 1.665 15.409-8.588 31.745-15.682 48.556-21.087.77-.248 1.487-.183 2.193.202.91.496 1.603 1.416 1.896 2.512l14.546 54.586c-31.146 10-59.889 27.57-83.176 50.857-23.287 23.288-40.857 52.03-50.856 83.176l-54.575-14.542c-1.107-.299-2.027-.991-2.523-1.902zm254.391 296.961c-119.797 0-217.259-97.462-217.259-217.259 0-15.649 1.701-31.261 5.05-46.537l11.748 3.13c1.297.348 2.624.513 3.956.513 4.463 0 8.959-1.867 12.436-4.959 4.463.965 8.761 1.458 12.883 1.458 18.642 0 33.767-9.857 45.119-29.471 6.171-10.209 13.592-19.677 22.058-28.143 8.467-8.466 17.935-15.888 28.142-22.058 23.953-13.862 33.345-33.354 28.013-58.006 4.013-4.512 5.961-10.743 4.452-16.374l-3.134-11.762c15.276-3.349 30.888-5.05 46.537-5.05 119.797 0 217.259 97.462 217.259 217.259s-97.463 217.259-217.26 217.259z"/><path d="m82.786 163.817c2.74-4.795 1.074-10.903-3.721-13.644s-10.905-1.073-13.645 3.721l-.004.007c-2.74 4.796-1.072 10.9 3.723 13.641 1.564.895 3.268 1.318 4.95 1.318 3.474 0 6.85-1.812 8.697-5.043z"/><path d="m158.87 84.101c1.789 0 3.6-.479 5.234-1.485 4.704-2.895 6.17-9.054 3.275-13.758s-9.055-6.172-13.758-3.275l-.006.004c-4.704 2.895-6.167 9.052-3.272 13.756 1.889 3.069 5.168 4.758 8.527 4.758z"/><path d="m274.746 154.745c-66.168 0-120 53.832-120 120 0 47.683 28.236 90.851 71.934 109.975 1.305.571 2.665.842 4.004.842 3.852-.001 7.523-2.239 9.167-5.993 2.214-5.06-.092-10.957-5.152-13.171-36.42-15.939-59.953-51.915-59.953-91.652 0-55.141 44.86-100 100-100s100 44.859 100 100c0 39.735-23.53 75.71-59.946 91.649-5.06 2.215-7.366 8.111-5.151 13.171s8.109 7.364 13.171 5.151c43.694-19.125 71.927-62.292 71.927-109.972-.001-66.168-53.833-120-120.001-120z"/><path d="m284.746 204.747c0-5.522-4.477-10-10-10h-.007c-5.523 0-9.997 4.478-9.997 10s4.481 10 10.004 10 10-4.478 10-10z"/><path d="m235.556 205.045-.006.003c-5.015 2.314-7.2 8.255-4.886 13.27 1.688 3.657 5.307 5.811 9.087 5.811 1.403 0 2.829-.297 4.186-.923 5.015-2.314 7.204-8.256 4.889-13.271-2.314-5.015-8.258-7.204-13.27-4.89z"/><path d="m219.672 231.426c-4.595-3.063-10.803-1.822-13.868 2.773l-.003.006c-3.064 4.595-1.82 10.801 2.775 13.864 1.704 1.137 3.63 1.68 5.536 1.68 3.233 0 6.406-1.564 8.333-4.456 3.065-4.594 1.823-10.803-2.773-13.867z"/><path d="m214.747 274.746c0-5.522-4.477-10-10-10s-10 4.478-10 10v.007c0 5.522 4.477 9.997 10 9.997s10-4.482 10-10.004z"/><path d="m205.185 314.224c1.752 3.503 5.281 5.527 8.948 5.527 1.503 0 3.03-.341 4.466-1.06 4.94-2.47 6.94-8.479 4.471-13.419-2.47-4.939-8.476-6.942-13.417-4.473-4.94 2.47-6.942 8.477-4.472 13.417z"/><path d="m244.988 326.849c-4.705-2.895-10.863-1.429-13.758 3.275s-1.428 10.863 3.275 13.758l.006.004c1.634 1.006 3.442 1.484 5.229 1.484 3.357 0 6.637-1.692 8.526-4.762 2.895-4.703 1.425-10.864-3.278-13.759z"/><path d="m274.753 354.744c5.523 0 9.997-4.478 9.997-10s-4.481-10-10.004-10-10 4.478-10 10 4.477 10 10 10z"/><path d="m314.986 343.882.006-.004c4.704-2.895 6.167-9.052 3.272-13.756-2.895-4.703-9.056-6.167-13.761-3.273-4.704 2.895-6.17 9.054-3.275 13.758 1.889 3.069 5.168 4.76 8.526 4.76 1.788 0 3.598-.479 5.232-1.485z"/><path d="m340.407 301.104c-4.77-2.781-10.895-1.169-13.678 3.602s-1.171 10.895 3.599 13.677c1.584.925 3.318 1.364 5.029 1.364 3.44 0 6.789-1.777 8.647-4.963l.003-.006c2.783-4.771 1.17-10.892-3.6-13.674z"/><path d="m354.744 274.746v-.008c0-5.522-4.477-9.996-10-9.996s-10 4.481-10 10.004 4.477 10 10 10 10-4.478 10-10z"/><path d="m343.683 234.193c-3.063-4.595-9.269-5.836-13.866-2.771-4.595 3.063-5.835 9.275-2.772 13.87 1.927 2.891 5.098 4.454 8.33 4.454 1.906 0 3.833-.544 5.538-1.681 4.595-3.063 5.837-9.272 2.773-13.867z"/><path d="m309.735 224.127c3.357 0 6.637-1.69 8.526-4.76 2.895-4.704 1.428-10.863-3.275-13.758l-.006-.004c-4.703-2.895-10.86-1.426-13.755 3.277-2.895 4.704-1.425 10.865 3.279 13.76 1.634 1.006 3.443 1.485 5.231 1.485z"/><path d="m234.746 274.746c0 22.056 17.944 40 40 40s40-17.944 40-40c0-22.057-17.944-40.001-40-40.001s-40 17.944-40 40.001zm40-20.001c11.028 0 20 8.973 20 20.001s-8.972 20-20 20-20-8.972-20-20 8.972-20.001 20-20.001z"/><path d="m260.432 130.909c1.575.909 3.294 1.342 4.991 1.342 3.456 0 6.817-1.794 8.669-5.002l18.628-32.265c2.762-4.783 1.123-10.898-3.66-13.66-4.781-2.76-10.898-1.123-13.66 3.66l-18.628 32.265c-2.762 4.783-1.124 10.898 3.66 13.66z"/><path d="m122.239 294.061c3.456 0 6.817-1.794 8.669-5.002 2.762-4.783 1.123-10.898-3.66-13.66l-32.265-18.628c-4.781-2.761-10.898-1.122-13.66 3.66-2.762 4.783-1.123 10.898 3.66 13.66l32.265 18.628c1.575.909 3.295 1.342 4.991 1.342z"/><path d="m147.336 349.06h-37.256c-5.523 0-10 4.478-10 10s4.477 10 10 10h37.256c5.523 0 10-4.478 10-10s-4.477-10-10-10z"/><path d="m201.564 402.808-32.265 18.628c-4.783 2.761-6.422 8.877-3.66 13.66 1.852 3.208 5.213 5.002 8.669 5.002 1.696 0 3.416-.433 4.991-1.342l32.265-18.628c4.783-2.761 6.422-8.877 3.66-13.66s-8.878-6.422-13.66-3.66z"/><path d="m289.06 418.583c-4.781-2.76-10.898-1.122-13.66 3.66l-18.628 32.265c-2.762 4.783-1.123 10.898 3.66 13.66 1.575.909 3.294 1.342 4.991 1.342 3.456 0 6.817-1.794 8.669-5.002l18.628-32.265c2.761-4.783 1.123-10.899-3.66-13.66z"/><path d="m359.06 392.155c-5.523 0-10 4.478-10 10v37.256c0 5.522 4.477 10 10 10s10-4.478 10-10v-37.256c0-5.523-4.477-10-10-10z"/><path d="m420.129 337.928c-2.762-4.782-8.877-6.423-13.66-3.66-4.783 2.762-6.422 8.877-3.66 13.66l18.628 32.265c1.852 3.208 5.213 5.002 8.669 5.002 1.696 0 3.416-.433 4.991-1.342 4.783-2.762 6.422-8.877 3.66-13.66z"/><path d="m464.507 275.399-32.265-18.627c-4.784-2.76-10.899-1.123-13.661 3.66-2.761 4.783-1.122 10.899 3.661 13.66l32.265 18.627c1.575.909 3.294 1.342 4.991 1.342 3.456 0 6.818-1.794 8.67-5.002 2.761-4.783 1.122-10.899-3.661-13.66z"/><path d="m439.411 200.431c5.523 0 10-4.478 10-10s-4.477-10-10-10h-37.256c-5.523 0-10 4.478-10 10s4.477 10 10 10z"/><path d="m342.937 148.024c1.696 0 3.416-.433 4.991-1.342l32.265-18.628c4.783-2.761 6.422-8.877 3.66-13.66s-8.878-6.422-13.66-3.66l-32.265 18.628c-4.783 2.761-6.422 8.877-3.66 13.66 1.852 3.208 5.213 5.002 8.669 5.002z"/><path d="m274.753 394.745c5.523 0 10-4.478 10-10s-4.477-10-10-10h-.007c-5.523 0-9.996 4.478-9.996 10s4.48 10 10.003 10z"/></g></g></svg>