<?xml version="1.0"?>
<svg xmlns="http://www.w3.org/2000/svg" xmlns:xlink="http://www.w3.org/1999/xlink" xmlns:svgjs="http://svgjs.com/svgjs" version="1.1" width="512" height="512" x="0" y="0" viewBox="0 0 230.978 230.978" style="enable-background:new 0 0 512 512" xml:space="preserve" class=""><g>
<path xmlns="http://www.w3.org/2000/svg" d="M230.338,106.843l-11.177-25.312c-1.2-2.718-3.89-4.471-6.861-4.471h-18.524c-4.142,0-7.5,3.357-7.5,7.5v11.823h-5.762  v-9.728c0-4.143-3.358-7.5-7.5-7.5h-19.968V58.69c0-4.143-3.358-7.5-7.5-7.5h-36.895v-7.142h36.895c4.142,0,7.5-3.358,7.5-7.5  c0-4.143-3.358-7.5-7.5-7.5H56.758c-4.142,0-7.5,3.357-7.5,7.5c0,4.142,3.358,7.5,7.5,7.5h36.895v7.142H56.758  c-4.142,0-7.5,3.357-7.5,7.5v6.234H32.804c-4.142,0-7.5,3.357-7.5,7.5v40.247H15V72.424c0-4.143-3.358-7.5-7.5-7.5  S0,68.282,0,72.424v95.496c0,4.143,3.358,7.5,7.5,7.5s7.5-3.357,7.5-7.5v-40.249h10.304v40.249c0,4.143,3.358,7.5,7.5,7.5h29.139  l29.608,24.762c1.35,1.129,3.052,1.747,4.812,1.747h76.652c4.142,0,7.5-3.357,7.5-7.5v-20.445h5.762v11.823  c0,4.143,3.358,7.5,7.5,7.5h18.524c2.971,0,5.661-1.753,6.861-4.471l11.177-25.312c0.421-0.954,0.639-1.986,0.639-3.029v-50.623  C230.978,108.83,230.76,107.797,230.338,106.843z M215.978,158.914l-8.563,19.394h-6.138v-11.823c0-4.143-3.358-7.5-7.5-7.5h-20.762  c-4.142,0-7.5,3.357-7.5,7.5v20.445h-66.43l-29.608-24.762c-1.35-1.129-3.052-1.747-4.812-1.747H40.304V79.924h16.454  c4.142,0,7.5-3.357,7.5-7.5V66.19h73.789v20.467c0,4.143,3.358,7.5,7.5,7.5h19.968v9.728c0,4.143,3.358,7.5,7.5,7.5h20.762  c4.142,0,7.5-3.357,7.5-7.5V92.061h6.138l8.563,19.394V158.914z" fill="#6F6F6F" data-original="#000000" style=""/>
<g xmlns="http://www.w3.org/2000/svg">
</g>
<g xmlns="http://www.w3.org/2000/svg">
</g>
<g xmlns="http://www.w3.org/2000/svg">
</g>
<g xmlns="http://www.w3.org/2000/svg">
</g>
<g xmlns="http://www.w3.org/2000/svg">
</g>
<g xmlns="http://www.w3.org/2000/svg">
</g>
<g xmlns="http://www.w3.org/2000/svg">
</g>
<g xmlns="http://www.w3.org/2000/svg">
</g>
<g xmlns="http://www.w3.org/2000/svg">
</g>
<g xmlns="http://www.w3.org/2000/svg">
</g>
<g xmlns="http://www.w3.org/2000/svg">
</g>
<g xmlns="http://www.w3.org/2000/svg">
</g>
<g xmlns="http://www.w3.org/2000/svg">
</g>
<g xmlns="http://www.w3.org/2000/svg">
</g>
<g xmlns="http://www.w3.org/2000/svg">
</g>
</g></svg>
