<?xml version="1.0" encoding="iso-8859-1"?>
<!-- Generator: Adobe Illustrator 19.0.0, SVG Export Plug-In . SVG Version: 6.00 Build 0)  -->
<svg version="1.1" id="Capa_1" xmlns="http://www.w3.org/2000/svg" xmlns:xlink="http://www.w3.org/1999/xlink" x="0px" y="0px"
	 viewBox="0 0 512 512" style="enable-background:new 0 0 512 512;" xml:space="preserve">
<g>
	<g>
		<path d="M466.409,90.062c0.16,0.002,0.32,0.012,0.48,0.012c12.03,0,23.339-4.685,31.846-13.19
			c8.506-8.507,13.191-19.816,13.191-31.847c0-12.029-4.685-23.339-13.191-31.846C490.228,4.685,478.918,0,466.889,0
			s-23.339,4.685-31.846,13.19c-8.366,8.367-13.025,19.447-13.177,31.255c-0.208,0.177-0.415,0.356-0.612,0.553l-28.999,28.999
			l-22.133-22.133c-10.729-10.728-28.187-10.729-38.917,0c-5.197,5.198-8.06,12.108-8.06,19.459s2.862,14.261,8.06,19.458
			l19.588,19.588c-0.162,0.143-0.328,0.281-0.483,0.436l-20.108,20.107l-11.802-16.854c-5.052-7.215-12.98-11.793-21.754-12.561
			c-8.773-0.761-17.377,2.364-23.604,8.591c-10.217,10.219-11.617,26.225-3.329,38.061v-0.001l17.813,25.44l-6.661,6.661
			l-11.802-16.854c-5.051-7.215-12.98-11.792-21.753-12.56c-8.774-0.775-17.377,2.364-23.604,8.591
			c-10.217,10.218-11.617,26.224-3.33,38.06l17.813,25.44l-6.469,6.469l-11.802-16.854c-5.051-7.215-12.98-11.792-21.753-12.56
			c-8.775-0.775-17.377,2.364-23.605,8.591c-10.217,10.218-11.617,26.224-3.33,38.06l17.813,25.44l-6.47,6.469l-11.802-16.854
			c-5.051-7.215-12.98-11.792-21.753-12.56c-8.775-0.775-17.377,2.364-23.604,8.591c-10.218,10.216-11.619,26.223-3.331,38.06
			l17.813,25.44l-29.079,29.079c-0.16,0.16-0.303,0.33-0.45,0.498l-18.951-18.951c-5.197-5.197-12.108-8.06-19.458-8.06
			s-14.261,2.862-19.458,8.06c-5.198,5.197-8.06,12.107-8.06,19.459c0,7.351,2.862,14.261,8.06,19.458l22.133,22.133l-28.999,28.999
			c-0.015,0.015-0.028,0.032-0.043,0.048c-0.16-0.002-0.32-0.012-0.48-0.012c-12.03,0-23.339,4.685-31.846,13.19
			c-8.506,8.507-13.191,19.816-13.191,31.847c0,12.029,4.685,23.339,13.191,31.846C21.774,507.315,33.084,512,45.113,512
			s23.339-4.685,31.846-13.19c8.366-8.367,13.025-19.447,13.177-31.254c0.208-0.177,0.415-0.356,0.612-0.553l28.999-28.999
			l22.419,22.419c5.197,5.197,12.108,8.06,19.458,8.06c7.35,0,14.261-2.862,19.458-8.06c5.198-5.197,8.06-12.107,8.06-19.459
			c0-7.351-2.862-14.261-8.06-19.458l-19.817-19.817c0.168-0.147,0.338-0.29,0.497-0.449l20.097-20.097l11.753,16.784
			c5.052,7.215,12.98,11.793,21.754,12.561c0.873,0.076,1.744,0.114,2.611,0.114c7.851,0,15.386-3.098,20.994-8.705
			c10.217-10.218,11.617-26.225,3.33-38.06l-17.765-25.371l6.469-6.47l11.753,16.785c5.052,7.215,12.98,11.793,21.754,12.561
			c0.873,0.076,1.744,0.114,2.611,0.114c7.851,0,15.386-3.098,20.994-8.705c10.217-10.219,11.617-26.225,3.329-38.06l-17.765-25.371
			l6.469-6.469l11.754,16.786c5.051,7.214,12.98,11.791,21.754,12.559c0.873,0.076,1.743,0.114,2.61,0.114
			c7.851,0,15.386-3.098,20.994-8.705c10.217-10.218,11.617-26.224,3.329-38.06l-17.764-25.37l6.66-6.661l11.753,16.785
			c5.051,7.215,12.98,11.792,21.753,12.56c0.873,0.077,1.744,0.114,2.611,0.114c7.851,0,15.386-3.098,20.993-8.705
			c10.218-10.216,11.619-26.223,3.331-38.06l-17.764-25.37l29.09-29.09c0.155-0.155,0.294-0.32,0.436-0.483l19.178,19.178
			c5.198,5.198,12.108,8.061,19.459,8.061c7.351,0,14.261-2.862,19.458-8.06c5.198-5.197,8.06-12.107,8.06-19.458
			s-2.862-14.261-8.06-19.459l-22.419-22.419l28.999-28.999C466.381,90.094,466.393,90.077,466.409,90.062z M62.816,484.667
			C58.088,489.396,51.801,492,45.113,492s-12.975-2.604-17.703-7.333c-4.729-4.729-7.333-11.016-7.333-17.703
			c0-6.688,2.604-12.976,7.333-17.704c4.729-4.729,11.016-7.333,17.703-7.333s12.975,2.604,17.703,7.333
			c4.729,4.729,7.333,11.016,7.333,17.704C70.15,473.651,67.545,479.938,62.816,484.667z M84.449,445.016
			c-2.006-3.582-4.507-6.916-7.49-9.898c-2.783-2.783-5.871-5.148-9.181-7.083l21-21l16.826,16.826L84.449,445.016z
			 M166.941,435.647c1.42,1.42,2.202,3.308,2.202,5.315c0,2.009-0.782,3.896-2.202,5.316c-1.42,1.421-3.308,2.202-5.316,2.202
			s-3.896-0.781-5.316-2.202l-60.456-60.456c-0.001-0.001-0.002-0.002-0.003-0.003c-0.001-0.001-0.002-0.002-0.003-0.003
			l-29.201-29.201c-1.42-1.42-2.202-3.308-2.202-5.315c0-2.009,0.782-3.896,2.202-5.316c1.42-1.421,3.308-2.202,5.316-2.202
			c2.008,0,3.896,0.781,5.316,2.202L166.941,435.647z M147.621,387.096c-0.16,0.16-0.303,0.33-0.449,0.497l-22.706-22.706
			c0.168-0.147,0.338-0.29,0.497-0.449l26.586-26.585l18.663,26.653L147.621,387.096z M225.92,375.308
			c2.709,3.87,2.251,9.104-1.09,12.445c-2.788,2.788-6.03,2.959-7.718,2.81c-1.686-0.147-4.853-0.878-7.114-4.107l-71.526-102.149
			c-2.71-3.871-2.252-9.105,1.089-12.446c2.788-2.79,6.032-2.961,7.719-2.81c1.686,0.147,4.852,0.877,7.113,4.106L225.92,375.308z
			 M194.225,295.176l6.47-6.469l18.663,26.653l-6.47,6.469L194.225,295.176z M275.063,326.161c2.711,3.871,2.253,9.106-1.088,12.446
			c-2.788,2.788-6.03,2.96-7.718,2.81c-1.686-0.147-4.853-0.878-7.114-4.107l-71.527-102.15c-2.71-3.871-2.252-9.105,1.089-12.446
			c2.788-2.79,6.032-2.958,7.719-2.81c1.686,0.147,4.852,0.877,7.113,4.106L275.063,326.161z M243.37,246.03l6.469-6.469
			l18.663,26.653l-6.469,6.469L243.37,246.03z M324.209,277.016c2.709,3.871,2.251,9.105-1.089,12.446
			c-2.787,2.788-6.03,2.96-7.719,2.81c-1.686-0.147-4.852-0.877-7.114-4.106l-47.796-68.26c-0.486-1.108-1.173-2.15-2.08-3.057
			c-0.053-0.053-0.111-0.097-0.164-0.148l-21.485-30.685c-2.71-3.871-2.252-9.105,1.089-12.446c2.788-2.788,6.031-2.958,7.719-2.81
			c1.686,0.147,4.852,0.877,7.113,4.106L324.209,277.016z M292.516,196.885l6.661-6.661l18.663,26.653l-6.661,6.661L292.516,196.885
			z M373.545,227.679c2.71,3.871,2.252,9.105-1.089,12.446c-2.788,2.789-6.035,2.96-7.719,2.81
			c-1.686-0.147-4.852-0.877-7.113-4.106l-71.526-102.15c0-0.001,0-0.001,0-0.001c-2.71-3.87-2.252-9.104,1.089-12.445
			c2.368-2.368,5.065-2.847,6.857-2.847c0.317,0,0.607,0.015,0.861,0.037c1.686,0.147,4.853,0.878,7.114,4.107L373.545,227.679z
			 M387.111,147.605l-26.596,26.596l-18.663-26.653l22.601-22.6c0.155-0.155,0.294-0.321,0.437-0.483l22.704,22.704
			C387.431,147.312,387.266,147.45,387.111,147.605z M445.643,155.671c1.42,1.419,2.202,3.307,2.202,5.315s-0.782,3.896-2.202,5.315
			c-1.42,1.421-3.308,2.202-5.316,2.202s-3.896-0.781-5.316-2.202l-89.664-89.663c-1.42-1.42-2.202-3.308-2.202-5.315
			c0-2.009,0.782-3.896,2.202-5.316c1.466-1.466,3.391-2.198,5.316-2.198c1.925,0,3.851,0.732,5.316,2.198l60.168,60.168
			c0.002,0.002,0.003,0.003,0.005,0.005s0.003,0.003,0.005,0.005L445.643,155.671z M423.225,104.966L406.398,88.14l21.156-21.155
			c2.006,3.582,4.507,6.916,7.49,9.898c2.783,2.783,5.871,5.148,9.181,7.083L423.225,104.966z M441.853,45.036
			c-0.001-6.687,2.604-12.974,7.333-17.703C453.914,22.604,460.201,20,466.889,20s12.975,2.604,17.703,7.333
			c4.729,4.729,7.333,11.016,7.333,17.703c0,6.688-2.604,12.976-7.333,17.704c-4.729,4.729-11.016,7.333-17.703,7.333
			s-12.975-2.604-17.703-7.333C444.457,58.011,441.853,51.724,441.853,45.036z"/>
	</g>
</g>
<g>
</g>
<g>
</g>
<g>
</g>
<g>
</g>
<g>
</g>
<g>
</g>
<g>
</g>
<g>
</g>
<g>
</g>
<g>
</g>
<g>
</g>
<g>
</g>
<g>
</g>
<g>
</g>
<g>
</g>
</svg>
